{"title":"Silk S03E06 720P x264 RB58.mp4","uid":9862656,"size":1062212561,"categoryP":"video","categoryS":"hd___tv_shows","magnet":"?xt=urn:btih:e9348b367d2e3abfab8001829f3fff6c7a1ccee4&amp;dn=Silk+S03E06+720P+x264+RB58.mp4&amp;tr=udp%3A%2F%2Ftracker.openbittorrent.com%3A80&amp;tr=udp%3A%2F%2Fopen.demonii.com%3A1337&amp;tr=udp%3A%2F%2Ftracker.coppersurfer.tk%3A6969&amp;tr=udp%3A%2F%2Fexodus.desync.com%3A6969","seeders":2,"leechers":0,"uploader":"RedBaron58","files":1,"time":1396313899,"description":"Silk S03E06 (BBC) 2014 720P x264\n  &lt;a href=&quot;\nhttp://www.imdb.com/title/tt1717455/&quot; rel=&quot;nofollow&quot; target=&quot;_NEW&quot;&gt;\nhttp://www.imdb.com/title/tt1717455/&lt;/a&gt; \n\n\nPlease be patient My upload speed is limited, but I am online most the time and during the night.\nThank you for your kind comments and thumbs ups on my other torrents, your feedback is welcome.\n\n\nAbout the Episode:\nMartha becomes increasingly isolated as she struggles to build a defence for ex-boyfriend Sean \nin the face of overwhelming evidence, and isn't helped by an angry Clive, who is busy pointing \nout the holes in her client's story. \nEventually, the downtrodden QC realises she will have to rely on an old enemy if she has any hope \nof clearing his name.\n\n\nI hope you enjoy.\n\n\nTechnical:\n\nGeneral\nComplete name                            : G:Silk S03E06 720P x264 RB58.mp4\nFormat                                   : MPEG-4\nFormat profile                           : Base Media\nCodec ID                                 : isom\nFile size                                : 1 013 MiB\nDuration                                 : 59mn 6s\nOverall bit rate mode                    : Variable\nOverall bit rate                         : 2 396 Kbps\nWriting application                      : Lavf54.63.104\n\nVideo\nID                                       : 1\nFormat                                   : AVC\nFormat/Info                              : Advanced Video Codec\nFormat profile                           : &lt;a class=&quot;__cf_email__&quot; href=&quot;/cdn-cgi/l/email-protection&quot; data-cfemail=&quot;aae2c3cdc2eae69e849b&quot;&gt;[email&amp;#160;protected]&lt;/a&gt;&lt;script cf-hash='f9e31' type=&quot;text/javascript&quot;&gt;\n/* &lt;![CDATA[ */!function(){try{var t=&quot;currentScript&quot;in document?document.currentScript:function(){for(var t=document.getElementsByTagName(&quot;script&quot;),e=t.length;e--;)if(t[e].getAttribute(&quot;cf-hash&quot;))return t[e]}();if(t&amp;&amp;t.previousSibling){var e,r,n,i,c=t.previousSibling,a=c.getAttribute(&quot;data-cfemail&quot;);if(a){for(e=&quot;&quot;,r=parseInt(a.substr(0,2),16),n=2;a.length-n;n+=2)i=parseInt(a.substr(n,2),16)^r,e+=String.fromCharCode(i);e=document.createTextNode(e),c.parentNode.replaceChild(e,c)}}}catch(u){}}();/* ]]&gt; */&lt;/script&gt;\nFormat settings, CABAC                   : Yes\nFormat settings, ReFrames                : 2 frames\nCodec ID                                 : avc1\nCodec ID/Info                            : Advanced Video Coding\nDuration                                 : 59mn 6s\nBit rate mode                            : Variable\nBit rate                                 : 2 297 Kbps\nMaximum bit rate                         : 3 500 Kbps\nWidth                                    : 1 280 pixels\nHeight                                   : 720 pixels\nDisplay aspect ratio                     : 16:9\nFrame rate mode                          : Constant\nFrame rate                               : 25.000 fps\nColor space                              : YUV\nChroma subsampling                       : 4:2:0\nBit depth                                : 8 bits\nScan type                                : Progressive\nBits/(Pixel*Frame)                       : 0.100\nStream size                              : 971 MiB (96%)\n\nAudio\nID                                       : 2\nFormat                                   : AAC\nFormat/Info                              : Advanced Audio Codec\nFormat profile                           : LC\nCodec ID                                 : 40\nDuration                                 : 59mn 6s\nBit rate mode                            : Constant\nBit rate                                 : 93.5 Kbps\nChannel(s)                               : 2 channels\nChannel positions                        : Front: L R\nSampling rate                            : 48.0 KHz\nCompression mode                         : Lossy\nStream size                              : 39.5 MiB (4%)","torrent":{"xt":"urn:btih:e9348b367d2e3abfab8001829f3fff6c7a1ccee4","amp;dn":"Silk+S03E06+720P+x264+RB58.mp4","amp;tr":["udp%3A%2F%2Ftracker.openbittorrent.com%3A80","udp%3A%2F%2Fopen.demonii.com%3A1337","udp%3A%2F%2Ftracker.coppersurfer.tk%3A6969","udp%3A%2F%2Fexodus.desync.com%3A6969"],"infoHash":"e9348b367d2e3abfab8001829f3fff6c7a1ccee4","infoHashBuffer":{"type":"Buffer","data":[233,52,139,54,125,46,58,191,171,128,1,130,159,63,255,108,122,28,206,228]},"announce":[],"urlList":[]}}